<svg width="196" height="217" viewBox="0 0 196 217" fill="none" xmlns="http://www.w3.org/2000/svg">
<path d="M99.0771 90.8545C102.433 91.1871 130.446 113.803 136.04 117.219C138.615 118.792 148.577 126.409 151.06 128.476C149.563 128.557 147.814 128.461 146.682 129.318C146.223 131.935 146.41 140.123 146.412 143.164L146.437 171.787C161.273 172.38 169.578 172.727 183.818 168.582C179.85 176.028 172.133 186.412 166.408 192.543C143.86 216.396 107.549 223.236 77.5664 210.218C64.5415 204.563 52.3155 195.031 39.125 191.234C27.9632 188.022 11.8675 189.498 0 189.909C10.5429 185.633 24.1368 179.617 35.7812 180.647C40.2444 181.043 45.3274 182.897 49.4805 184.592C54.0789 186.716 59.5448 189.409 64.2158 191.158C67.5038 189.425 77.4643 182.953 80.958 180.731C101.38 167.749 114.599 169.496 137.549 171.21C137.776 166.347 137.61 160.329 137.616 155.396C137.687 147.548 137.661 139.698 137.539 131.85C129.281 125.538 121.081 119.149 112.944 112.682C109.359 109.843 103.844 105.099 100.173 102.842C96.0883 105.603 91.3067 109.479 87.3477 112.528L63.2051 131.188C63.5746 136.06 63.3352 144.442 63.3369 149.596L63.3809 183.29C60.5139 182.674 57.6561 182.012 54.8105 181.304C54.283 164.613 54.9698 146.936 54.5781 130.019L49.1797 128.786C64.5098 116.161 83.1361 103.231 99.0771 90.8545ZM157.652 184.582C130.178 196.947 93.8465 198.407 64.4385 193.713L63.1572 194.479C71.7763 197.156 80.2627 199.638 89.2832 200.575C112.177 202.953 137.888 195.621 158.193 185.396L157.652 184.582Z" fill="white"/>
<path d="M58.1182 193.071C60.6993 193.165 61.9138 193.252 64.4379 193.713L63.157 194.48C61.4402 194.126 59.7939 193.585 58.1182 193.071Z" fill="white"/>
<path d="M157.652 184.582C158.596 184.109 159.525 183.466 160.519 183.624C160.005 184.514 159.176 184.8 158.193 185.397L157.652 184.582Z" fill="white"/>
<path d="M46.2132 38.5928C51.9773 51.9141 50.3307 54.1885 60.9328 66.5705C59.7809 69.5695 53.2226 66.864 51.2693 65.8916C57.2001 73.1296 59.9921 76.4034 67.1457 82.3519C63.2145 82.7401 59.5088 82.6706 55.5821 82.3249C61.2273 88.8691 65.7791 94.0359 72.9174 98.9702C68.9731 99.7314 65.6491 99.5904 61.6685 99.5302C64.8024 103.05 66.3101 104.552 70.2952 107.285C61.6982 112.79 50.2231 122.661 41.4706 129.095C44.6146 130.371 47.6793 131.874 50.907 133.173C50.5993 148.371 50.8672 164.741 50.8496 180.003C46.8451 178.749 42.9548 177.547 38.8286 176.76L39.2075 164.271C29.905 164.409 24.1284 164.227 15.1549 161.861C12.5527 161.075 9.06336 159.578 6.46875 158.553C18.9595 151.946 19.5434 150.653 29.4597 141.161C21.8912 142.328 18.6657 142.204 11.4346 140.038C18.5191 135.025 23.5728 128.741 28.7427 121.906C23.0352 122.346 20.211 121.765 14.945 119.76C26.054 116.862 30.8992 108.806 37.4551 100.363C34.7523 101.803 32.6838 102.854 29.5271 102.987C27.9983 103.052 23.6986 103.317 22.5903 102.33C23.2972 101.342 26.5743 99.2502 27.7805 98.2048C33.1457 93.5554 36.8587 87.5395 41.3379 82.1009C35.3836 84.9782 31.022 85.1638 24.5387 85.0591C34.8415 77.1822 34.5275 74.8909 41.6905 66.0063C37.1647 67.1796 35.3929 67.1181 30.8035 67.0604C38.858 60.4658 43.1964 48.2994 46.2132 38.5928Z" fill="white"/>
<path d="M151.79 39.3076C152.206 39.7377 153.513 44.7448 153.824 45.7443C156.593 54.6395 159.335 58.145 165.378 64.8475C161.716 64.7489 160.523 64.6062 157.117 63.3067C161.17 68.2689 164.158 72.0239 169.299 75.9214C165.04 76.2173 163.584 76.1993 159.45 75.2006C165.527 81.8868 166.785 83.3792 173.952 89.4377C169.102 90.193 166.582 89.7982 162.116 87.8478C167.128 94.189 171.117 100.017 178.422 103.88C172.69 104.55 171.249 104.645 165.627 103.345C171.425 110.496 176.355 115.73 184.797 119.769C179.352 120.684 176.957 121.2 171.498 120.106C176.044 127.954 181.672 134.393 189.42 139.237C182.27 140.01 178.775 139.489 172.21 137.084C177.862 142.595 182.682 147.665 189.544 151.75C190.733 152.458 195.356 154.823 195.639 155.621L194.806 156.296C189.223 158.502 180.766 159.855 174.678 160.999L150.317 165.611C150.359 157.333 150.68 140.35 149.908 132.788C153.108 131.411 155.453 130.306 158.527 128.675C149.341 121.546 136.541 111.793 126.945 105.645C131.847 101.864 136.147 97.6253 140.975 93.9211C136.95 94.2599 133.634 94.0687 129.659 93.7894C137.704 88.0331 139.99 85.2543 146.136 77.7246C142.039 78.1467 137.981 77.9465 133.871 77.8269C141.369 72.3261 142.999 69.5093 148.553 62.3757C144.133 64.3853 142.389 64.7424 137.564 65.2084C144.96 59.0932 148.542 48.1106 151.79 39.3076Z" fill="white"/>
<path d="M99.1452 0C99.1788 0.0670664 99.212 0.134481 99.2455 0.201548C103.368 11.4722 105.838 20.9016 114.781 29.7312C109.572 29.7557 108.632 29.2368 103.719 27.5733C108.947 34.0732 115.925 42.9011 123.262 47.0087C116.226 47.2628 112.967 47.2137 106.412 44.1166C112.383 51.6121 120.697 62.5339 129.15 67.2251C120.754 68.0295 119.132 67.9687 111.588 64.502C119.562 72.6329 123.752 79.7544 134.079 85.5308C126.956 86.1012 122.429 85.3555 115.894 82.0952C121.179 89.1765 123.109 94.1052 130.23 99.9327C121.547 100.002 119.113 99.8031 111.932 94.303C108.3 91.5214 103.263 87.763 99.3679 85.4104C95.2283 88.7869 85.2315 96.5773 80.8488 99.1819C80.2441 98.952 79.3577 98.7608 78.7088 98.5949C76.4378 98.4998 74.546 98.4348 72.2823 98.0978C77.6602 92.897 79.8517 90.0764 84.5521 84.0681C76.8858 86.7127 72.7255 87.6385 64.4863 87.0474C71.8802 81.4511 80.8623 71.2785 86.2818 63.7674C80.1629 67.3184 75.6139 67.8083 68.6228 66.9748C78.5494 59.1833 83.7473 54.0859 91.5463 44.0249C85.4486 46.5548 81.8548 47.081 75.1223 47.062C79.0618 44.1083 82.0225 41.9117 85.4154 38.2604C88.4943 34.9471 91.2048 31.1669 94.1797 27.855C90.0224 29.168 88.1836 29.4923 83.8244 29.7191C91.9564 21.1809 96.2446 11.2948 99.1452 0Z" fill="white"/>
<path d="M101.125 137.194C104.745 137.135 108.365 137.127 111.986 137.169L112.095 161.765L101.344 161.771C101.075 153.853 101.185 145.173 101.125 137.194Z" fill="white"/>
<path d="M88.3467 137.2C91.9045 137.037 95.5051 137.118 99.0691 137.151L98.9696 161.709C95.5148 161.784 91.8377 161.72 88.3647 161.719L88.3467 137.2Z" fill="white"/>
<path d="M78.7085 98.5947C79.3574 98.7607 80.2438 98.9518 80.8485 99.1817C77.9939 101.159 73.5214 105.564 70.3307 105.52L70.0801 105.14C71.8121 101.476 77.0947 101.925 78.7085 98.5947Z" fill="white"/>
</svg>
